<svg width="351" height="621" viewBox="0 0 351 621" fill="none" xmlns="http://www.w3.org/2000/svg">
<g clip-path="url(#clip0_113_74)">
<rect width="351" height="621" fill="#F5F3EC"/>
<g clip-path="url(#clip1_113_74)">
<path d="M44.4254 58.9475H61.7512C61.8889 58.9475 62 58.8362 62 58.6983C62 51.1448 55.8654 45 48.3261 45C45.9313 45 43.5763 45.6296 41.5132 46.819C38.4534 48.5832 36.2178 51.4139 35.2161 54.7895C35.1763 54.9207 35.2526 55.0602 35.3836 55.1001C35.5163 55.1383 35.6539 55.0636 35.6937 54.9323C36.6589 51.6797 38.8133 48.952 41.762 47.2509C43.7505 46.1047 46.0192 45.4984 48.3278 45.4984C55.5088 45.4984 61.3681 51.2843 61.5008 58.4491H44.4254C44.2878 58.4491 44.1767 58.5604 44.1767 58.6983C44.1767 58.8362 44.2878 58.9475 44.4254 58.9475Z" fill="#BFAF6A"/>
<path d="M58.5833 58.9474C58.7209 58.9474 58.832 58.8361 58.832 58.6982C58.832 52.8956 54.1187 48.1729 48.3241 48.1729C43.8264 48.1729 39.8279 51.0368 38.3768 55.2977C38.332 55.4273 38.4016 55.5702 38.5327 55.6134C38.6637 55.6582 38.8046 55.5885 38.8478 55.4589C40.2309 51.3989 44.0387 48.6712 48.3241 48.6712C53.8434 48.6712 58.3345 53.1697 58.3345 58.6982C58.3345 58.8361 58.4456 58.9474 58.5833 58.9474Z" fill="#BFAF6A"/>
<path d="M55.4036 58.9475C55.5412 58.9475 55.6523 58.8362 55.6523 58.6983C55.6523 54.6499 52.3653 51.3574 48.3237 51.3574C45.0947 51.3574 42.2836 53.4306 41.325 56.5155C41.2836 56.6467 41.3582 56.7862 41.4892 56.8278C41.6202 56.8693 41.7595 56.7945 41.801 56.6633C42.6932 53.7878 45.3153 51.8558 48.3253 51.8558C52.0917 51.8558 55.1565 54.9257 55.1565 58.6983C55.1565 58.8362 55.2676 58.9475 55.4052 58.9475H55.4036Z" fill="#BFAF6A"/>
<path d="M44.4245 58.9475C44.5622 58.9475 44.6733 58.8362 44.6733 58.6983C44.6733 56.6816 46.3118 55.0404 48.3252 55.0404C50.3385 55.0404 51.9771 56.6816 51.9771 58.6983C51.9771 58.8362 52.0882 58.9475 52.2258 58.9475C52.3635 58.9475 52.4746 58.8362 52.4746 58.6983C52.4746 56.4059 50.6138 54.542 48.3252 54.542C46.0365 54.542 44.1757 56.4059 44.1757 58.6983C44.1757 58.8362 44.2869 58.9475 44.4245 58.9475Z" fill="#BFAF6A"/>
<path d="M21.4736 68.5559H48.3255C48.4631 68.5559 48.5742 68.4446 48.5742 68.3067C48.5742 60.7532 42.4396 54.6101 34.9003 54.6101C27.361 54.6101 21.2248 60.7549 21.2248 68.3067C21.2248 68.4446 21.3359 68.5559 21.4736 68.5559ZM48.0734 68.0575H21.724C21.8567 60.8944 27.7159 55.1085 34.8987 55.1085C42.0814 55.1085 47.9407 60.8944 48.0734 68.0575Z" fill="#BFAF6A"/>
<path d="M24.6392 68.5559C24.7768 68.5559 24.888 68.4446 24.888 68.3067C24.888 62.7783 29.379 58.2797 34.8983 58.2797C40.4176 58.2797 44.9087 62.7783 44.9087 68.3067C44.9087 68.4446 45.0198 68.5559 45.1575 68.5559C45.2951 68.5559 45.4062 68.4446 45.4062 68.3067C45.4062 62.5042 40.6929 57.7814 34.8983 57.7814C29.1037 57.7814 24.3904 62.5025 24.3904 68.3067C24.3904 68.4446 24.5015 68.5559 24.6392 68.5559Z" fill="#BFAF6A"/>
<path d="M27.818 68.5559C27.9556 68.5559 28.0668 68.4446 28.0668 68.3067C28.0668 64.5341 31.1316 61.4642 34.8979 61.4642C38.6642 61.4642 41.729 64.5341 41.729 68.3067C41.729 68.4446 41.8401 68.5559 41.9778 68.5559C42.1154 68.5559 42.2266 68.4446 42.2266 68.3067C42.2266 64.2583 38.9395 60.9658 34.8979 60.9658C30.8563 60.9658 27.5692 64.2583 27.5692 68.3067C27.5692 68.4446 27.6803 68.5559 27.818 68.5559Z" fill="#BFAF6A"/>
<path d="M30.9968 68.5559C31.1344 68.5559 31.2455 68.4446 31.2455 68.3067C31.2455 66.29 32.8841 64.6488 34.8974 64.6488C36.9108 64.6488 38.5493 66.29 38.5493 68.3067C38.5493 68.4446 38.6605 68.5559 38.7981 68.5559C38.9358 68.5559 39.0469 68.4446 39.0469 68.3067C39.0469 66.0143 37.1861 64.1504 34.8974 64.1504C32.6088 64.1504 30.748 66.0143 30.748 68.3067C30.748 68.4446 30.8591 68.5559 30.9968 68.5559Z" fill="#BFAF6A"/>
<path d="M-26.9 83.0001H7.79473C8.92579 83.0001 9.84623 82.0781 9.84623 80.9452C9.84623 79.8122 8.92579 78.8903 7.79473 78.8903H-17.412C-18.2694 78.8903 -18.966 78.1926 -18.966 77.3337C-18.966 76.4749 -18.2694 75.7772 -17.412 75.7772H-7.05997C-5.92891 75.7772 -5.00847 74.8552 -5.00847 73.7223C-5.00847 72.5893 -5.92891 71.6674 -7.05997 71.6674H-10.5477C-11.4051 71.6674 -12.1016 70.9697 -12.1016 70.1108C-12.1016 69.252 -11.4051 68.5543 -10.5477 68.5543H21.4719C21.6096 68.5543 21.7207 68.443 21.7207 68.3051C21.7207 68.1672 21.6096 68.0559 21.4719 68.0559H-10.5477C-11.6787 68.0559 -12.5992 68.9779 -12.5992 70.1108C-12.5992 71.2438 -11.6787 72.1657 -10.5477 72.1657H-7.05997C-6.20255 72.1657 -5.50601 72.8634 -5.50601 73.7223C-5.50601 74.5811 -6.20255 75.2788 -7.05997 75.2788H-17.412C-18.543 75.2788 -19.4635 76.2008 -19.4635 77.3337C-19.4635 78.4667 -18.543 79.3886 -17.412 79.3886H7.79473C8.65215 79.3886 9.3487 80.0863 9.3487 80.9452C9.3487 81.804 8.65215 82.5017 7.79473 82.5017H-26.9C-27.0376 82.5017 -27.1487 82.613 -27.1487 82.7509C-27.1487 82.8888 -27.0376 83.0001 -26.9 83.0001Z" fill="#BFAF6A"/>
</g>
<g clip-path="url(#clip2_113_74)">
<path d="M287.249 64H314.101C314.238 64 314.35 63.8887 314.35 63.7508C314.35 56.1973 308.215 50.0542 300.674 50.0542C293.133 50.0542 287 56.199 287 63.7508C287 63.8887 287.111 64 287.249 64ZM313.85 63.5016H287.501C287.634 56.3385 293.493 50.5526 300.676 50.5526C307.858 50.5526 313.718 56.3385 313.85 63.5016Z" fill="#BFAF6A"/>
<path d="M290.417 64C290.554 64 290.665 63.8887 290.665 63.7508C290.665 58.2223 295.156 53.7238 300.676 53.7238C306.195 53.7238 310.686 58.2223 310.686 63.7508C310.686 63.8887 310.797 64 310.935 64C311.073 64 311.184 63.8887 311.184 63.7508C311.184 57.9482 306.47 53.2254 300.676 53.2254C294.881 53.2254 290.168 57.9465 290.168 63.7508C290.168 63.8887 290.279 64 290.417 64Z" fill="#BFAF6A"/>
<path d="M293.595 63.9999C293.733 63.9999 293.844 63.8886 293.844 63.7508C293.844 59.9782 296.909 56.9083 300.675 56.9083C304.442 56.9083 307.506 59.9782 307.506 63.7508C307.506 63.8886 307.617 63.9999 307.755 63.9999C307.893 63.9999 308.004 63.8886 308.004 63.7508C308.004 59.7041 304.717 56.4099 300.675 56.4099C296.634 56.4099 293.347 59.7024 293.347 63.7508C293.347 63.8886 293.458 63.9999 293.595 63.9999Z" fill="#BFAF6A"/>
<path d="M296.774 64C296.912 64 297.023 63.8887 297.023 63.7508C297.023 61.7341 298.661 60.0928 300.675 60.0928C302.688 60.0928 304.327 61.7341 304.327 63.7508C304.327 63.8887 304.438 64 304.575 64C304.713 64 304.824 63.8887 304.824 63.7508C304.824 61.4584 302.963 59.5945 300.675 59.5945C298.386 59.5945 296.525 61.4584 296.525 63.7508C296.525 63.8887 296.636 64 296.774 64Z" fill="#BFAF6A"/>
<path d="M314.1 63.9998H348.795C349.926 63.9998 350.846 63.0779 350.846 61.9449C350.846 60.812 349.926 59.89 348.795 59.89H323.588C322.731 59.89 322.034 59.1923 322.034 58.3335C322.034 57.4746 322.731 56.7769 323.588 56.7769H333.94C335.071 56.7769 335.992 55.855 335.992 54.722C335.992 53.5891 335.071 52.6671 333.94 52.6671H330.452C329.595 52.6671 328.898 51.9694 328.898 51.1106C328.898 50.2517 329.595 49.554 330.452 49.554H362.472C362.61 49.554 362.721 49.4427 362.721 49.3048C362.721 49.167 362.61 49.0557 362.472 49.0557H330.452C329.321 49.0557 328.401 49.9776 328.401 51.1106C328.401 52.2435 329.321 53.1655 330.452 53.1655H333.94C334.797 53.1655 335.494 53.8632 335.494 54.722C335.494 55.5809 334.797 56.2786 333.94 56.2786H323.588C322.457 56.2786 321.537 57.2005 321.537 58.3335C321.537 59.4664 322.457 60.3884 323.588 60.3884H348.795C349.652 60.3884 350.349 61.0861 350.349 61.9449C350.349 62.8038 349.652 63.5015 348.795 63.5015H314.1C313.962 63.5015 313.851 63.6128 313.851 63.7507C313.851 63.8885 313.962 63.9998 314.1 63.9998Z" fill="#BFAF6A"/>
</g>
<path d="M0 8H351" stroke="#2B557E"/>
<path d="M0 613H351" stroke="#2B557E"/>
<rect x="8.5" y="0.5" width="334" height="620" stroke="#2B557E"/>
</g>
<rect x="1.5" y="1.5" width="348" height="618" stroke="#1B2F49" stroke-width="3"/>
<defs>
<clipPath id="clip0_113_74">
<rect width="351" height="621" fill="white"/>
</clipPath>
<clipPath id="clip1_113_74">
<rect width="56" height="38" fill="white" transform="matrix(-1 0 0 1 65 45)"/>
</clipPath>
<clipPath id="clip2_113_74">
<rect width="56" height="38" fill="white" transform="matrix(-1 0 0 1 343 26)"/>
</clipPath>
</defs>
</svg>
