<svg width="241" height="141" viewBox="0 0 241 141" fill="none" xmlns="http://www.w3.org/2000/svg">
<path d="M93.1074 139.78C90.5737 134.595 87.1319 124.676 86.8613 114.67C97.5316 116.186 108.821 117 120.501 117C186.5 117 240.003 91.0325 240.003 59C240.003 26.9675 186.5 1 120.501 1C54.5024 1.00009 1.00002 26.9675 1 59C1 83.5116 32.3284 104.472 76.6113 112.963C79.5007 119.879 85.5159 131.814 93.1074 139.78Z" fill="#F9FBFE"/>
<path d="M93.1074 139.78L93.5567 139.561L92.7454 140.125L93.1074 139.78ZM86.8613 114.67L86.3615 114.683L86.3455 114.092L86.9317 114.175L86.8613 114.67ZM120.501 117L120.501 117.5L120.501 117.5L120.501 117ZM240.003 59L240.503 59V59H240.003ZM120.501 1L120.501 0.5H120.501V1ZM1 59L0.5 59L0.5 59L1 59ZM76.6113 112.963L76.7055 112.472L76.9692 112.522L77.0727 112.77L76.6113 112.963ZM93.1074 139.78L92.6582 140C90.1023 134.769 86.6345 124.78 86.3615 114.683L86.8613 114.67L87.3611 114.656C87.6292 124.573 91.045 134.421 93.5567 139.561L93.1074 139.78ZM86.8613 114.67L86.9317 114.175C97.5782 115.688 108.844 116.5 120.501 116.5L120.501 117L120.501 117.5C108.798 117.5 97.485 116.685 86.791 115.165L86.8613 114.67ZM120.501 117V116.5C153.442 116.5 183.239 110.019 204.783 99.5624C226.361 89.0895 239.503 74.717 239.503 59H240.003H240.503C240.503 75.3155 226.893 89.9431 205.22 100.462C183.512 110.998 153.559 117.5 120.501 117.5V117ZM240.003 59L239.503 59C239.503 43.283 226.361 28.9105 204.783 18.4376C183.239 7.98136 153.442 1.5 120.501 1.5V1V0.5C153.559 0.5 183.512 7.00238 205.22 17.538C226.893 28.0569 240.503 42.6845 240.503 59L240.003 59ZM120.501 1L120.501 1.5C87.5605 1.50004 57.763 7.98142 36.2193 18.4377C14.6414 28.9106 1.50001 43.283 1.5 59L1 59L0.5 59C0.500009 42.6845 14.1098 28.057 35.7827 17.538C57.4899 7.00244 87.4429 0.500045 120.501 0.5L120.501 1ZM1 59H1.5C1.5 71.0251 9.18541 82.2608 22.4864 91.5796C35.7799 100.893 54.6107 108.235 76.7055 112.472L76.6113 112.963L76.5172 113.454C54.329 109.199 35.3542 101.816 21.9126 92.3986C8.47876 82.9867 0.5 71.4865 0.5 59H1ZM76.6113 112.963L77.0727 112.77C79.9541 119.667 85.941 131.535 93.4694 139.435L93.1074 139.78L92.7454 140.125C85.0908 132.092 79.0473 120.091 76.15 113.156L76.6113 112.963Z" fill="black"/>
</svg>
